# xmcd
#
# Track frame offsets:
#	183
#	9845
#	18258
#	28020
#	39795
#	49808
#	59408
#	69965
#	83270
#	93833
#	107370
#	120408
#	130458
#	143420
#	157645
#	170920
#	187870
#	202758
#	221033
#	237045
#	251745
#	263670
#	277570
#	288158
#	301870
#
# Disc length: 4190 seconds
#
# Revision: 15
# Processed by: cddbd v1.5.2PL0 Copyright (c) Steve Scherf et al.
# Submitted via: audiograbber 1.83.01
#
DISCID=2a105c19
DTITLE=Various Artist - Happy Days - 25 Super Oldies  CD2
DYEAR=1990
DGENRE=Oldies
TTITLE0=Jackie Wilson - Shake Shake Shake
TTITLE1=Jerry Lee Lewis - Great Balls Of Fire
TTITLE2=The Marcels - Blue Moon
TTITLE3=Pat Boone - Speedy Gonzales
TTITLE4=Lesley Gore - It's My Party
TTITLE5=Buddy Holly - Every Day
TTITLE6=The Everly Brothers - Be-Bop-A-Lula
TTITLE7=Ben E. King - Stand By Me
TTITLE8=Timi Yuro - Hurt
TTITLE9=Trini Lopez - If I Had A Hammer
TTITLE10=The Turtles - Happy Together
TTITLE11=Gerry and The Pacemakers - I Like It
TTITLE12=Dionne Warwick, - Anyone Who Had A Heart
TTITLE13=The Tremeloes - Young Girl
TTITLE14=Lynn Anderson - Rosegarden
TTITLE15=Glady's Knight and The Pips - You're The Best Thing That Ever Happened
TTITLE16=George McCrae  - Rock Your Baby
TTITLE17=Brook Benton - A Rainy Night In Georgia
TTITLE18=Melanie - Beautiful People
TTITLE19=Sam and Dave - When Something Is Wrong With My Baby
TTITLE20=The Lovin' Spoonful - Summer In The City
TTITLE21=The Troggs - I Can't Control Myself
TTITLE22=Sam The Sham and The Pharaohs - Wooly Bully
TTITLE23=The Ventures - Diamond Heart
TTITLE24=The Kingsmen - Louie, Louie
EXTD=
EXTT0=
EXTT1=
EXTT2=
EXTT3=
EXTT4=
EXTT5=
EXTT6=
EXTT7=
EXTT8=
EXTT9=
EXTT10=
EXTT11=
EXTT12=
EXTT13=
EXTT14=
EXTT15=
EXTT16=
EXTT17=
EXTT18=
EXTT19=
EXTT20=
EXTT21=
EXTT22=
EXTT23=
EXTT24=
PLAYORDER=
